<?xml version="1.0" encoding="UTF-8"?>
<svg id="a" data-name="Layer 1" xmlns="http://www.w3.org/2000/svg" width="492" height="492" xmlns:xlink="http://www.w3.org/1999/xlink" viewBox="0 0 492 492">
  <defs>
    <linearGradient id="b" data-name="Gold" x1="125.64" y1="-270.01" x2="765.98" y2="366.45" gradientUnits="userSpaceOnUse">
      <stop offset="0" stop-color="#c1ac51"/>
      <stop offset=".5" stop-color="#f7eead"/>
      <stop offset=".82" stop-color="#d2c16e"/>
      <stop offset="1" stop-color="#c1ac51"/>
    </linearGradient>
    <linearGradient id="c" data-name="Gold" x1="137.8" y1="-282.24" x2="778.14" y2="354.22" xlink:href="#b"/>
    <linearGradient id="d" data-name="Gold" x1="126.21" y1="-270.57" x2="766.55" y2="365.88" xlink:href="#b"/>
    <linearGradient id="e" data-name="Gold" x1="43.62" y1="-187.48" x2="683.96" y2="448.97" xlink:href="#b"/>
    <linearGradient id="f" data-name="Gold" x1="-51.89" y1="-91.39" x2="588.45" y2="545.06" xlink:href="#b"/>
    <linearGradient id="g" data-name="Gold" x1="-71.89" y1="-71.27" x2="568.45" y2="565.19" xlink:href="#b"/>
    <linearGradient id="h" data-name="Gold" x1="30.56" y1="-174.34" x2="670.89" y2="462.12" xlink:href="#b"/>
    <linearGradient id="i" data-name="Gold" x1="-92.86" y1="-50.17" x2="547.48" y2="586.29" xlink:href="#b"/>
    <linearGradient id="j" data-name="Gold" x1="-93.2" y1="-49.83" x2="547.14" y2="586.62" xlink:href="#b"/>
    <linearGradient id="k" data-name="Gold" x1="-73.2" y1="-69.95" x2="567.14" y2="566.5" xlink:href="#b"/>
    <linearGradient id="l" data-name="Gold" x1="-52.22" y1="-91.05" x2="588.12" y2="545.4" xlink:href="#b"/>
    <linearGradient id="m" data-name="Gold" x1="30.67" y1="-174.45" x2="671.01" y2="462" xlink:href="#b"/>
    <linearGradient id="n" data-name="Gold" x1="43.55" y1="-187.41" x2="683.89" y2="449.04" xlink:href="#b"/>
    <linearGradient id="o" data-name="Gold" x1="-270.73" y1="128.79" x2="369.61" y2="765.24" xlink:href="#b"/>
    <linearGradient id="p" data-name="Gold" x1="-282.89" y1="141.02" x2="357.45" y2="777.47" xlink:href="#b"/>
    <linearGradient id="q" data-name="Gold" x1="-175.64" y1="33.12" x2="464.7" y2="669.57" xlink:href="#b"/>
    <linearGradient id="r" data-name="Gold" x1="-271.29" y1="129.35" x2="369.05" y2="765.81" xlink:href="#b"/>
    <linearGradient id="s" data-name="Gold" x1="-188.71" y1="46.27" x2="451.63" y2="682.72" xlink:href="#b"/>
    <linearGradient id="t" data-name="Gold" x1="-188.64" y1="46.19" x2="451.7" y2="682.65" xlink:href="#b"/>
    <linearGradient id="u" data-name="Gold" x1="-175.75" y1="33.23" x2="464.59" y2="669.68" xlink:href="#b"/>
  </defs>
  <path d="M437.33,20.29c-3.62-3.94-8.64-5-13.81-5.31-5.15-.31-11.28-.51-12.72-6.62-.26-1.11-3.99-.43-3.76.57,2.51,10.72,16.53,5.53,23.59,9.69.21.12.41.26.61.39-3.67-.9-7.61-.72-11.33.52-6.79,2.26-9.17,9.75-5.72,15.91.6,1.08,4.1-.21,3.68-.97-2.1-3.75-2.75-11.72,2.55-13.49,5.84-1.95,11.9-.02,16.09,4.31.12.12.3.19.51.22,4.01,8.51.21,20.24-5.62,27.29-.94,1.14,2.72,1.04,3.36.26,7.56-9.13,11.4-23.16,2.57-32.77Z" fill="url(#b)" stroke-width="0"/>
  <path d="M449.21,47.89c2.8-1.45,5.54-3.03,8.24-4.71,5.02-3.16,10.13-5.13,15.34-5.92,3.81-.57,7.22-.52,10.21.12,2.89.67,5.18,1.84,6.86,3.52.71.72,1.25,1.69,1.64,2.92.44,1.29.59,2.49.43,3.58-.13.89-.56,1.71-1.31,2.46-1.19,1.19-2.41,2.04-3.64,2.55-1.05.44-1.74.51-2.07.18-.1-.1-.01-.48.26-1.11.27-.64.53-1.08.78-1.32.2-.2.6-.44,1.2-.74.6-.3,1.02-.57,1.26-.81.93-.93,1.41-1.95,1.44-3.05.03-1.1-.39-2.09-1.26-2.96-1.42-1.42-4.29-2.06-8.6-1.92-4.68.15-10.28,1.21-16.8,3.2-4.92,1.48-10,3.68-15.22,6.59-.64.37-1.08.57-1.31.64-.34.1-.64.02-.91-.25-.34-.34-.34-.69,0-1.03.16-.17,1.32-.81,3.46-1.95ZM462.02,18.93c.68-.03,1.21.14,1.6.53.14.14.28.59.42,1.36.15.77.28,1.22.4,1.34.1.1.5.09,1.18-.04,1.77-.26,2.71-.4,2.86-.42.87-.1,1.43-.15,1.67-.15.46.02.87.2,1.22.55.44.45.49,1.69.15,3.74-.14.75-.28,1.5-.43,2.25-.1.54-.09.88.04,1,.14.14.58.29,1.32.44.73.15,1.19.31,1.35.47.22.22.34.59.34,1.1s-.15.9-.43,1.18c-.22.22-2.2,1.13-5.92,2.71-5.43,2.31-8.56,3.67-9.39,4.1-2.37,1.23-4.66,2.8-6.86,4.68-1.74,1.54-3.49,3.06-5.22,4.56-1.2.99-1.99,1.3-2.37.91l-.06-.06c-.18-.18.99-1.54,3.53-4.07.69-.69,1.76-1.64,3.22-2.86,1.58-1.29,2.74-2.29,3.47-2.98,1.17-1.13,2.27-2.14,3.28-3.04.89-.77,1.31-1.12,1.25-1.06.67-.67.89-1.11.67-1.34-.24-.24-1.34.38-3.28,1.88-2.23,1.74-4.85,4.12-7.87,7.14l-.25.24c-.22.22-.55.57-.97,1.04-.43.46-.76.82-1,1.06-1.15,1.16-1.85,1.61-2.1,1.37-.18-.18-.04-.57.43-1.15.67-.83,1.35-1.65,2.03-2.46,3.28-3.96,5.37-6.54,6.26-7.71,1.83-2.39,3.12-4.4,3.89-6.02.89-1.9,1.76-4.09,2.61-6.56.62-1.76,1.07-2.77,1.34-3.04.43-.42.98-.66,1.66-.68ZM446.5.02c1.81.16,3.5,1.02,5.08,2.6,3.32,3.32,4.88,7.73,4.68,13.24-.24,5.67-2.36,11.88-6.35,18.63-2.39,3.61-4.08,6.01-5.08,7.2-.58.87-1.25,1.89-2,3.04-.51.83-.82,1.3-.94,1.43-.16.16-.37.27-.64.33-.24-.45-.32-.83-.24-1.15.06-.14.26-.47.6-.97,1.04-1.48,2.14-3.33,3.31-5.55,1.36-2.62,2.44-5.22,3.25-7.81,2.2-7.15,3.33-13.22,3.37-18.2.02-4.8-.97-8.2-2.95-10.18-.5-.5-1.29-.85-2.35-1.02-1.06-.17-1.82-.03-2.26.41-.26.27-.72.99-1.37,2.19-.64,1.2-1.29,2.12-1.94,2.76-1.19,1.2-2.12,1.48-2.77.83-.49-.49-.22-1.24.79-2.25.1-.1.22-.23.36-.36.16-.12.27-.2.31-.25.02-.02.28-.4.79-1.15.51-.75,1.09-1.45,1.73-2.1,1.26-1.25,2.8-1.81,4.61-1.65Z" fill="url(#c)" stroke-width="0"/>
  <path d="M485.13,81.42c-6.11-1.43-6.3-7.57-6.62-12.72-.31-5.16-1.37-10.19-5.31-13.81-9.61-8.83-23.63-4.99-32.77,2.57-.78.64-.88,4.3.26,3.36,7.05-5.83,18.78-9.63,27.29-5.62.03.21.1.39.22.51,4.33,4.19,6.26,10.25,4.31,16.09-1.77,5.3-9.75,4.65-13.49,2.55-.76-.43-2.05,3.07-.97,3.68,6.16,3.45,13.64,1.06,15.91-5.72,1.24-3.72,1.42-7.66.52-11.33.13.2.27.4.39.61,4.16,7.05-1.03,21.08,9.69,23.59,1,.23,1.68-3.5.57-3.76Z" fill="url(#d)" stroke-width="0"/>
  <path d="M397.83,14.69H94.17c.21-.75.38-1.83.42-2.47h302.82c.04.64.21,1.72.42,2.47Z" fill="url(#e)" stroke-width="0"/>
  <path d="M54.67,20.29c3.62-3.94,8.64-5,13.81-5.31,5.15-.31,11.28-.51,12.72-6.62.26-1.11,3.99-.43,3.76.57-2.51,10.72-16.53,5.53-23.59,9.69-.21.12-.41.26-.61.39,3.67-.9,7.61-.72,11.33.52,6.79,2.26,9.17,9.75,5.72,15.91-.6,1.08-4.1-.21-3.68-.97,2.1-3.75,2.75-11.72-2.55-13.49-5.84-1.95-11.9-.02-16.09,4.31-.12.12-.3.19-.51.22-4.01,8.51-.21,20.24,5.62,27.29.94,1.14-2.72,1.04-3.36.26-7.56-9.13-11.4-23.16-2.57-32.77Z" fill="url(#f)" stroke-width="0"/>
  <path d="M46.25,49.84c.34.35.34.69,0,1.03-.27.27-.57.34-.91.25-.22-.07-.66-.27-1.31-.64-5.23-2.92-10.3-5.11-15.22-6.59-6.52-1.99-12.12-3.05-16.8-3.2-4.31-.14-7.18.5-8.6,1.92-.87.87-1.29,1.86-1.26,2.96.03,1.11.51,2.12,1.44,3.05.24.24.66.51,1.26.81.6.29,1,.54,1.2.74.25.25.5.69.78,1.32.27.63.36,1.01.26,1.11-.32.33-1.01.26-2.07-.18-1.24-.51-2.45-1.36-3.64-2.55-.75-.75-1.19-1.58-1.31-2.46-.16-1.09-.02-2.29.43-3.58.39-1.24.93-2.21,1.64-2.92,1.68-1.68,3.97-2.85,6.86-3.52,3-.64,6.4-.69,10.21-.12,5.21.79,10.32,2.76,15.34,5.92,2.7,1.68,5.44,3.25,8.24,4.71,2.14,1.14,3.3,1.78,3.46,1.95ZM31.64,19.61c.27.26.71,1.27,1.34,3.04.85,2.47,1.72,4.66,2.61,6.56.77,1.62,2.07,3.63,3.89,6.02.88,1.17,2.98,3.75,6.26,7.71.69.81,1.37,1.63,2.03,2.46.46.59.61.97.43,1.15-.24.25-.94-.21-2.1-1.37-.24-.24-.57-.6-1-1.06-.43-.47-.75-.81-.97-1.04l-.25-.24c-3.02-3.02-5.64-5.4-7.87-7.14-1.95-1.5-3.04-2.12-3.28-1.88-.22.22,0,.66.67,1.34-.06-.06.35.29,1.25,1.06,1.01.9,2.11,1.91,3.28,3.04.73.69,1.89,1.68,3.47,2.98,1.46,1.22,2.53,2.17,3.22,2.86,2.53,2.53,3.71,3.89,3.53,4.07l-.06.06c-.38.38-1.17.08-2.37-.91-1.74-1.5-3.49-3.02-5.22-4.56-2.21-1.88-4.5-3.45-6.86-4.68-.83-.43-3.96-1.8-9.39-4.1-3.73-1.58-5.7-2.48-5.92-2.71-.28-.28-.43-.68-.43-1.18s.11-.87.34-1.1c.16-.16.62-.31,1.35-.47.74-.15,1.18-.3,1.32-.44.13-.12.14-.46.04-1-.15-.75-.29-1.5-.43-2.25-.35-2.04-.3-3.29.15-3.74.35-.34.75-.52,1.22-.55.25,0,.8.05,1.67.15.15.02,1.09.16,2.86.42.69.13,1.08.14,1.18.04.12-.12.25-.57.4-1.34.14-.77.28-1.22.42-1.36.39-.39.92-.56,1.6-.53.68.03,1.23.26,1.66.68ZM50.11,1.68c.64.65,1.22,1.35,1.73,2.1.5.75.77,1.13.79,1.15.04.04.15.12.31.25.14.14.26.27.36.36,1.02,1.01,1.28,1.76.79,2.25-.65.65-1.57.37-2.77-.83-.65-.64-1.3-1.57-1.94-2.76-.65-1.19-1.11-1.92-1.37-2.19-.44-.44-1.2-.58-2.26-.41-1.06.17-1.85.51-2.35,1.02-1.99,1.99-2.97,5.38-2.95,10.18.04,4.98,1.17,11.05,3.37,18.2.81,2.59,1.9,5.19,3.25,7.81,1.17,2.22,2.28,4.08,3.31,5.55.34.51.55.83.6.97.08.33,0,.71-.24,1.15-.27-.06-.48-.17-.64-.33-.13-.12-.44-.6-.94-1.43-.75-1.15-1.42-2.17-2-3.04-1-1.2-2.69-3.6-5.08-7.2-3.99-6.75-6.11-12.96-6.35-18.63-.2-5.51,1.36-9.92,4.68-13.24,1.58-1.58,3.28-2.44,5.08-2.6,1.81-.15,3.35.4,4.61,1.65Z" fill="url(#g)" stroke-width="0"/>
  <path d="M432.2,43.71c-2.47,5.15-8.86,6.68-14.15,6.05-6.41-.78-11.75-5.29-13.75-11.41-1.85-5.62.21-11.47,3.91-15.73-5.29-2.05-8.52-7.14-8.49-12.83H92.28c.03,5.69-3.2,10.78-8.49,12.83,3.7,4.26,5.76,10.11,3.91,15.73-2,6.12-7.34,10.63-13.75,11.41-5.29.63-11.68-.9-14.15-6.05-2.35-4.88-.14-9.84,4.27-12.17.35-.22.72-.41,1.14-.54h.01c.09-.03.21-.06.34-.07,2.12-.5,4.19.41,4.73,2.16.56,1.84-.79,3.89-3.02,4.57-1.59.5-3.19.15-4.19-.76-.76,2.11-.64,4.53.63,6.75,2.86,5.02,9.91,6.11,14.46,2.64,7.9-6,8.06-16.51,1.56-23.53-.41-.44.56-.84.82-.91,5.5-1.55,8.26-7.31,7.91-12.71-.05-.85,1.89-.87,2.36-.87h310.36c.47,0,2.41.02,2.36.87-.35,5.4,2.41,11.16,7.91,12.71.26.07,1.23.47.82.91-6.5,7.02-6.34,17.53,1.56,23.53,4.55,3.47,11.6,2.38,14.46-2.64,1.27-2.22,1.39-4.64.63-6.75-1,.91-2.6,1.26-4.19.76-2.23-.68-3.58-2.73-3.02-4.57.54-1.75,2.61-2.66,4.73-2.16.13.01.25.04.34.07h0c.42.13.79.32,1.14.54,4.41,2.33,6.62,7.29,4.27,12.17Z" fill="url(#h)" stroke-width="0"/>
  <path d="M6.87,81.42c6.11-1.43,6.3-7.57,6.62-12.72.31-5.16,1.37-10.19,5.31-13.81,9.61-8.83,23.63-4.99,32.77,2.57.78.64.88,4.3-.26,3.36-7.05-5.83-18.78-9.63-27.29-5.62-.03.21-.1.39-.22.51-4.33,4.19-6.26,10.25-4.31,16.09,1.77,5.3,9.75,4.65,13.49,2.55.76-.43,2.05,3.07.97,3.68-6.16,3.45-13.64,1.06-15.91-5.72-1.24-3.72-1.42-7.66-.52-11.33-.13.2-.27.4-.39.61-4.16,7.05,1.03,21.08-9.69,23.59-1,.23-1.68-3.5-.57-3.76Z" fill="url(#i)" stroke-width="0"/>
  <path d="M437.33,471.71c-3.62,3.94-8.64,5-13.81,5.31-5.15.31-11.28.51-12.72,6.62-.26,1.11-3.99.43-3.76-.57,2.51-10.72,16.53-5.53,23.59-9.69.21-.12.41-.26.61-.39-3.67.9-7.61.72-11.33-.52-6.79-2.26-9.17-9.75-5.72-15.91.6-1.08,4.1.21,3.68.97-2.1,3.75-2.75,11.72,2.55,13.49,5.84,1.95,11.9.02,16.09-4.31.12-.12.3-.19.51-.22,4.01-8.51.21-20.24-5.62-27.29-.94-1.14,2.72-1.04,3.36-.26,7.56,9.13,11.4,23.16,2.57,32.77Z" fill="url(#j)" stroke-width="0"/>
  <path d="M445.75,442.16c-.34-.35-.34-.69,0-1.03.27-.27.57-.34.91-.25.22.07.66.27,1.31.64,5.23,2.92,10.3,5.11,15.22,6.59,6.52,1.99,12.12,3.05,16.8,3.2,4.31.14,7.18-.5,8.6-1.92.87-.87,1.29-1.86,1.26-2.96-.03-1.11-.51-2.12-1.44-3.05-.24-.24-.66-.51-1.26-.81-.6-.29-1-.54-1.2-.74-.25-.25-.5-.69-.78-1.32-.27-.63-.36-1.01-.26-1.11.32-.33,1.01-.26,2.07.18,1.24.51,2.45,1.36,3.64,2.55.75.75,1.19,1.58,1.31,2.46.16,1.09.02,2.29-.43,3.58-.39,1.24-.93,2.21-1.64,2.92-1.68,1.68-3.97,2.85-6.86,3.52-3,.64-6.4.69-10.21.12-5.21-.79-10.32-2.76-15.34-5.92-2.7-1.68-5.44-3.25-8.24-4.71-2.14-1.14-3.3-1.78-3.46-1.95ZM460.36,472.39c-.27-.26-.71-1.27-1.34-3.04-.85-2.47-1.72-4.66-2.61-6.56-.77-1.62-2.07-3.63-3.89-6.02-.88-1.17-2.98-3.75-6.26-7.71-.69-.81-1.37-1.63-2.03-2.46-.46-.59-.61-.97-.43-1.15.24-.25.94.21,2.1,1.37.24.24.57.6,1,1.06.43.47.75.81.97,1.04l.25.24c3.02,3.02,5.64,5.4,7.87,7.14,1.95,1.5,3.04,2.12,3.28,1.88.22-.22,0-.66-.67-1.34.06.06-.35-.29-1.25-1.06-1.01-.9-2.11-1.91-3.28-3.04-.73-.69-1.89-1.68-3.47-2.98-1.46-1.22-2.53-2.17-3.22-2.86-2.53-2.53-3.71-3.89-3.53-4.07l.06-.06c.38-.38,1.17-.08,2.37.91,1.74,1.5,3.49,3.02,5.22,4.56,2.21,1.88,4.5,3.45,6.86,4.68.83.43,3.96,1.8,9.39,4.1,3.73,1.58,5.7,2.48,5.92,2.71.28.28.43.68.43,1.18s-.11.87-.34,1.1c-.16.16-.62.31-1.35.47-.74.15-1.18.3-1.32.44-.13.12-.14.46-.04,1,.15.75.29,1.5.43,2.25.35,2.04.3,3.29-.15,3.74-.35.34-.75.52-1.22.55-.25,0-.8-.05-1.67-.15-.15-.02-1.09-.16-2.86-.42-.69-.13-1.08-.14-1.18-.04-.12.12-.25.57-.4,1.34-.14.77-.28,1.22-.42,1.36-.39.39-.92.56-1.6.53-.68-.03-1.23-.26-1.66-.68ZM441.89,490.32c-.64-.65-1.22-1.35-1.73-2.1-.5-.75-.77-1.13-.79-1.15-.04-.04-.15-.12-.31-.25-.14-.14-.26-.27-.36-.36-1.02-1.01-1.28-1.76-.79-2.25.65-.65,1.57-.37,2.77.83.65.64,1.3,1.57,1.94,2.76.65,1.19,1.11,1.92,1.37,2.19.44.44,1.2.58,2.26.41,1.06-.17,1.85-.51,2.35-1.02,1.99-1.99,2.97-5.38,2.95-10.18-.04-4.98-1.17-11.05-3.37-18.2-.81-2.59-1.9-5.19-3.25-7.81-1.17-2.22-2.28-4.08-3.31-5.55-.34-.51-.55-.83-.6-.97-.08-.33,0-.71.24-1.15.27.06.48.17.64.33.13.12.44.6.94,1.43.75,1.15,1.42,2.17,2,3.04,1,1.2,2.69,3.6,5.08,7.2,3.99,6.75,6.11,12.96,6.35,18.63.2,5.51-1.36,9.92-4.68,13.24-1.58,1.58-3.28,2.44-5.08,2.6-1.81.15-3.35-.4-4.61-1.65Z" fill="url(#k)" stroke-width="0"/>
  <path d="M485.13,410.58c-6.11,1.43-6.3,7.57-6.62,12.72-.31,5.16-1.37,10.19-5.31,13.81-9.61,8.83-23.63,4.99-32.77-2.57-.78-.64-.88-4.3.26-3.36,7.05,5.83,18.78,9.63,27.29,5.62.03-.21.1-.39.22-.51,4.33-4.19,6.26-10.25,4.31-16.09-1.77-5.3-9.75-4.65-13.49-2.55-.76.43-2.05-3.07-.97-3.68,6.16-3.45,13.64-1.06,15.91,5.72,1.24,3.72,1.42,7.66.52,11.33.13-.2.27-.4.39-.61,4.16-7.05-1.03-21.08,9.69-23.59,1-.23,1.68,3.5.57,3.76Z" fill="url(#l)" stroke-width="0"/>
  <path d="M485.22,91.04v309.92c0,.47-.03,2.41-.88,2.36-5.39-.35-11.16,2.41-12.7,7.91-.08.26-.47,1.23-.91.82-7.02-6.49-17.53-6.34-23.54,1.56-3.46,4.55-2.37,11.6,2.65,14.47,2.22,1.26,4.64,1.38,6.75.62-.91-.99-1.26-2.6-.77-4.19.69-2.23,2.74-3.58,4.58-3.01,1.74.53,2.66,2.61,2.16,4.72-.02.13-.04.25-.07.34-.01,0-.01.01-.01.01-.13.42-.32.79-.53,1.14-2.34,4.41-7.29,6.62-12.17,4.27-5.16-2.47-6.69-8.86-6.05-14.15.77-6.4,5.29-11.75,11.4-13.75,5.63-1.85,11.48.21,15.73,3.91,2.06-5.29,7.14-8.52,12.83-8.49V92.5c-5.69.03-10.77-3.2-12.83-8.49-4.25,3.7-10.1,5.76-15.73,3.91-6.11-2-10.63-7.35-11.4-13.75-.64-5.29.89-11.68,6.05-14.15,4.88-2.35,9.83-.14,12.17,4.27.21.35.4.72.53,1.14,0,0,0,.01.01.01.03.09.05.21.07.34.5,2.11-.42,4.19-2.16,4.72-1.84.57-3.89-.78-4.58-3.01-.49-1.59-.14-3.2.77-4.19-2.11-.76-4.53-.64-6.75.62-5.02,2.87-6.11,9.92-2.65,14.47,6.01,7.9,16.52,8.05,23.54,1.56.44-.41.83.56.91.82,1.54,5.5,7.31,8.26,12.7,7.91.85-.05.88,1.89.88,2.36Z" fill="url(#m)" stroke-width="0"/>
  <path d="M481.05,94.92v302.16c-.64.04-1.72.2-2.47.41V94.51c.75.21,1.83.37,2.47.41Z" fill="url(#n)" stroke-width="0"/>
  <path d="M54.67,471.71c3.62,3.94,8.64,5,13.81,5.31,5.15.31,11.28.51,12.72,6.62.26,1.11,3.99.43,3.76-.57-2.51-10.72-16.53-5.53-23.59-9.69-.21-.12-.41-.26-.61-.39,3.67.9,7.61.72,11.33-.52,6.79-2.26,9.17-9.75,5.72-15.91-.6-1.08-4.1.21-3.68.97,2.1,3.75,2.75,11.72-2.55,13.49-5.84,1.95-11.9.02-16.09-4.31-.12-.12-.3-.19-.51-.22-4.01-8.51-.21-20.24,5.62-27.29.94-1.14-2.72-1.04-3.36-.26-7.56,9.13-11.4,23.16-2.57,32.77Z" fill="url(#o)" stroke-width="0"/>
  <path d="M42.79,444.11c-2.8,1.45-5.54,3.03-8.24,4.71-5.02,3.16-10.13,5.13-15.34,5.92-3.81.57-7.22.52-10.21-.12-2.89-.67-5.18-1.84-6.86-3.52-.71-.72-1.25-1.69-1.64-2.92-.44-1.29-.59-2.49-.43-3.58.13-.89.56-1.71,1.31-2.46,1.19-1.19,2.41-2.04,3.64-2.55,1.05-.44,1.74-.51,2.07-.18.1.1.01.48-.26,1.11-.27.64-.53,1.08-.78,1.32-.2.2-.6.44-1.2.74-.6.3-1.02.57-1.26.81-.93.93-1.41,1.95-1.44,3.05-.03,1.1.39,2.09,1.26,2.96,1.42,1.42,4.29,2.06,8.6,1.92,4.68-.15,10.28-1.21,16.8-3.2,4.92-1.48,10-3.68,15.22-6.59.64-.37,1.08-.57,1.31-.64.34-.1.64-.02.91.25.34.34.34.69,0,1.03-.16.17-1.32.81-3.46,1.95ZM29.98,473.07c-.68.03-1.21-.14-1.6-.53-.14-.14-.28-.59-.42-1.36-.15-.77-.28-1.22-.4-1.34-.1-.1-.5-.09-1.18.04-1.77.26-2.71.4-2.86.42-.87.1-1.43.15-1.67.15-.46-.02-.87-.2-1.22-.55-.44-.45-.49-1.69-.15-3.74.14-.75.28-1.5.43-2.25.1-.54.09-.88-.04-1-.14-.14-.58-.29-1.32-.44-.73-.15-1.19-.31-1.35-.47-.22-.22-.34-.59-.34-1.1s.15-.9.43-1.18c.22-.22,2.2-1.13,5.92-2.71,5.43-2.31,8.56-3.67,9.39-4.1,2.37-1.23,4.66-2.8,6.86-4.68,1.74-1.54,3.49-3.06,5.22-4.56,1.2-.99,1.99-1.3,2.37-.91l.06.06c.18.18-.99,1.54-3.53,4.07-.69.69-1.76,1.64-3.22,2.86-1.58,1.29-2.74,2.29-3.47,2.98-1.17,1.13-2.27,2.14-3.28,3.04-.89.77-1.31,1.12-1.25,1.06-.67.67-.89,1.11-.67,1.34.24.24,1.34-.38,3.28-1.88,2.23-1.74,4.85-4.12,7.87-7.14l.25-.24c.22-.22.55-.57.97-1.04.43-.46.76-.82,1-1.06,1.15-1.16,1.85-1.61,2.1-1.37.18.18.04.57-.43,1.15-.67.83-1.35,1.65-2.03,2.46-3.28,3.96-5.37,6.54-6.26,7.71-1.83,2.39-3.12,4.4-3.89,6.02-.89,1.9-1.76,4.09-2.61,6.56-.62,1.76-1.07,2.77-1.34,3.04-.43.42-.98.66-1.66.68ZM45.5,491.98c-1.81-.16-3.5-1.02-5.08-2.6-3.32-3.32-4.88-7.73-4.68-13.24.24-5.67,2.36-11.88,6.35-18.63,2.39-3.61,4.08-6.01,5.08-7.2.58-.87,1.25-1.89,2-3.04.51-.83.82-1.3.94-1.43.16-.16.37-.27.64-.33.24.45.32.83.24,1.15-.06.14-.26.47-.6.97-1.04,1.48-2.14,3.33-3.31,5.55-1.36,2.62-2.44,5.22-3.25,7.81-2.2,7.15-3.33,13.22-3.37,18.2-.02,4.8.97,8.2,2.95,10.18.5.5,1.29.85,2.35,1.02,1.06.17,1.82.03,2.26-.41.26-.27.72-.99,1.37-2.19.64-1.2,1.29-2.12,1.94-2.76,1.19-1.2,2.12-1.48,2.77-.83.49.49.22,1.24-.79,2.25-.1.1-.22.23-.36.36-.16.12-.27.2-.31.25-.02.02-.28.4-.79,1.15-.51.75-1.09,1.45-1.73,2.1-1.26,1.25-2.8,1.81-4.61,1.65Z" fill="url(#p)" stroke-width="0"/>
  <path d="M427.93,460.46c-.35.22-.72.41-1.14.54h0c-.09.03-.21.06-.34.07-2.12.5-4.19-.41-4.73-2.16-.56-1.84.79-3.89,3.02-4.57,1.59-.5,3.19-.15,4.19.76.76-2.11.64-4.53-.63-6.75-2.86-5.02-9.91-6.11-14.46-2.64-7.9,6-8.06,16.51-1.56,23.53.41.44-.56.84-.82.91-5.5,1.55-8.26,7.31-7.91,12.71.05.85-1.89.87-2.36.87H90.82c-.47,0-2.41-.02-2.36-.87.35-5.4-2.41-11.16-7.91-12.71-.26-.07-1.23-.47-.82-.91,6.5-7.02,6.34-17.53-1.56-23.53-4.55-3.47-11.6-2.38-14.46,2.64-1.27,2.22-1.39,4.64-.63,6.75,1-.91,2.6-1.26,4.19-.76,2.23.68,3.58,2.73,3.02,4.57-.54,1.75-2.61,2.66-4.73,2.16-.13-.01-.25-.04-.34-.07h-.01c-.42-.13-.79-.32-1.14-.54-4.41-2.33-6.62-7.29-4.27-12.17,2.47-5.15,8.86-6.68,14.15-6.05,6.41.78,11.75,5.29,13.75,11.41,1.85,5.62-.21,11.47-3.91,15.73,5.29,2.05,8.52,7.14,8.49,12.83h307.44c-.03-5.69,3.2-10.78,8.49-12.83-3.7-4.26-5.76-10.11-3.91-15.73,2-6.12,7.34-10.63,13.75-11.41,5.29-.63,11.68.9,14.15,6.05,2.35,4.88.14,9.84-4.27,12.17Z" fill="url(#q)" stroke-width="0"/>
  <path d="M6.87,410.58c6.11,1.43,6.3,7.57,6.62,12.72.31,5.16,1.37,10.19,5.31,13.81,9.61,8.83,23.63,4.99,32.77-2.57.78-.64.88-4.3-.26-3.36-7.05,5.83-18.78,9.63-27.29,5.62-.03-.21-.1-.39-.22-.51-4.33-4.19-6.26-10.25-4.31-16.09,1.77-5.3,9.75-4.65,13.49-2.55.76.43,2.05-3.07.97-3.68-6.16-3.45-13.64-1.06-15.91,5.72-1.24,3.72-1.42,7.66-.52,11.33-.13-.2-.27-.4-.39-.61-4.16-7.05,1.03-21.08-9.69-23.59-1-.23-1.68,3.5-.57,3.76Z" fill="url(#r)" stroke-width="0"/>
  <path d="M397.83,477.31c-.21.75-.38,1.83-.42,2.47H94.59c-.04-.64-.21-1.72-.42-2.47h303.66Z" fill="url(#s)" stroke-width="0"/>
  <path d="M13.42,94.51v302.98c-.75-.21-1.83-.37-2.47-.41V94.92c.64-.04,1.72-.2,2.47-.41Z" fill="url(#t)" stroke-width="0"/>
  <path d="M48.27,417.83c.64,5.29-.89,11.68-6.05,14.15-4.88,2.35-9.83.14-12.17-4.27-.21-.35-.4-.72-.53-1.14,0,0,0-.01-.01-.01-.03-.09-.05-.21-.07-.34-.5-2.11.42-4.19,2.16-4.72,1.84-.57,3.89.78,4.58,3.01.49,1.59.14,3.2-.77,4.19,2.11.76,4.53.64,6.75-.62,5.02-2.87,6.11-9.92,2.65-14.47-6.01-7.9-16.52-8.05-23.54-1.56-.44.41-.83-.56-.91-.82-1.54-5.5-7.31-8.26-12.7-7.91-.85.05-.88-1.89-.88-2.36V91.04c0-.47.03-2.41.88-2.36,5.39.35,11.16-2.41,12.7-7.91.08-.26.47-1.23.91-.82,7.02,6.49,17.53,6.34,23.54-1.56,3.46-4.55,2.37-11.6-2.65-14.47-2.22-1.26-4.64-1.38-6.75-.62.91.99,1.26,2.6.77,4.19-.69,2.23-2.74,3.58-4.58,3.01-1.74-.53-2.66-2.61-2.16-4.72.02-.13.04-.25.07-.34.01,0,.01-.01.01-.01.13-.42.32-.79.53-1.14,2.34-4.41,7.29-6.62,12.17-4.27,5.16,2.47,6.69,8.86,6.05,14.15-.77,6.4-5.29,11.75-11.4,13.75-5.63,1.85-11.48-.21-15.73-3.91-2.06,5.29-7.14,8.52-12.83,8.49v307c5.69-.03,10.77,3.2,12.83,8.49,4.25-3.7,10.1-5.76,15.73-3.91,6.11,2,10.63,7.35,11.4,13.75Z" fill="url(#u)" stroke-width="0"/>
</svg>