<?xml version="1.0" encoding="UTF-8"?>
<svg id="a" data-name="Layer 1" xmlns="http://www.w3.org/2000/svg" width="1" height="1" viewBox="0 0 1 1">
  <circle cx=".5017" cy=".9241" r=".0759" stroke-width="0"/>
  <rect x=".03" y=".7459" width=".9401" height=".0733" stroke-width="0"/>
  <rect x=".03" y=".6468" width=".9401" height=".0733" stroke-width="0"/>
  <path d="M.9687.624H.2262c-.034,0-.0625-.0021-.0856-.006s-.0416-.0102-.0555-.0186c-.0141-.0086-.0241-.0196-.0298-.033-.006-.0136-.0089-.0301-.0089-.0495,0-.0126.0026-.0259.0078-.0403s.0136-.0272.0256-.0395c.0118-.012.0275-.0222.0468-.0301s.0434-.0118.0722-.0118h.085c.0304,0,.0542-.0047.0722-.0139.0178-.0094.0314-.0212.0403-.0353.0092-.0144.0152-.0304.0178-.0476.0026-.0175.0039-.0345.0039-.0508,0-.0264-.0037-.05-.011-.0704s-.0175-.0379-.0301-.0521-.0275-.0249-.0442-.0322-.0345-.011-.0531-.011c-.0118,0-.0243.0018-.0379.0058.0526.0243.079.0651.079.1224,0,.0215-.0034.0406-.0102.0576s-.0165.0314-.0288.0434c-.0126.012-.0275.0212-.0447.0277-.0173.0065-.0366.0097-.0576.0097-.0196,0-.0385-.0037-.0565-.011s-.034-.017-.0479-.0293-.0249-.0267-.033-.0429c-.0081-.0165-.0123-.0338-.0123-.0521,0-.0304.0068-.0583.0207-.0842s.0314-.0487.0547-.0678c.0233-.0191.05-.0343.0808-.0453.0306-.011.0633-.0162.0976-.0162.0288,0,.0573.005.0856.0149.0283.0099.0536.0249.0759.0447.0222.0199.0403.0447.0542.0746s.0207.0646.0207.1041c0,.0338-.0031.0631-.0097.0882s-.0152.0466-.0264.0644-.0243.0324-.0398.0437c-.0152.0113-.0319.0204-.0497.0269s-.0364.0113-.0557.0136c-.0194.0026-.0387.0037-.0578.0037h-.084c-.0081,0-.0154.001-.0215.0029-.0063.0018-.0113.0044-.0152.0073s-.0068.0063-.0086.0097-.0029.0068-.0029.0099c0,.0215.016.0322.0481.0322h.7718v.0832h0ZM.2223.2062c0-.0097-.0013-.0191-.0037-.028-.0024-.0089-.0058-.0167-.0099-.0233-.0042-.0068-.0092-.0123-.0149-.0162-.0058-.0042-.0118-.006-.0183-.006-.0068,0-.0133.0021-.0191.0063-.0058.0042-.011.0099-.0152.0167-.0042.0071-.0076.0149-.0099.0235-.0024.0089-.0037.0178-.0037.0269s.0013.0181.0037.0267c.0024.0086.0058.0165.0099.0233.0042.0071.0094.0126.0152.0165.0058.0042.0123.006.0191.006.0065,0,.0128-.0021.0186-.006.0058-.0042.0107-.0094.0149-.0162s.0073-.0144.0097-.0233c.0026-.0086.0037-.0175.0037-.0269Z" stroke-width="0"/>
</svg>