<?xml version="1.0" encoding="UTF-8"?>
<svg id="a" data-name="Layer 1" xmlns="http://www.w3.org/2000/svg" width="167.4" height="167.73" xmlns:xlink="http://www.w3.org/1999/xlink" viewBox="0 0 167.4 167.73">
  <defs>
    <linearGradient id="b" data-name="êVãKÉOÉâÉfÅ[ÉVÉáÉìÉXÉEÉHÉbÉ` 6" x1="77.25" y1="17.7" x2="117.67" y2="41.04" gradientUnits="userSpaceOnUse">
      <stop offset="0" stop-color="#d0a16b"/>
      <stop offset=".27" stop-color="#9b7142"/>
      <stop offset=".53" stop-color="#d3b783"/>
      <stop offset=".65" stop-color="#ebd59f"/>
      <stop offset=".77" stop-color="#d9ba81"/>
      <stop offset="1" stop-color="#b1803e"/>
    </linearGradient>
    <linearGradient id="c" data-name="êVãKÉOÉâÉfÅ[ÉVÉáÉìÉXÉEÉHÉbÉ` 6" x1="107.31" y1="16.89" x2="165.79" y2="50.65" xlink:href="#b"/>
    <linearGradient id="d" data-name="êVãKÉOÉâÉfÅ[ÉVÉáÉìÉXÉEÉHÉbÉ` 6" x1="9.75" y1="-8.25" x2="105.66" y2="47.13" xlink:href="#b"/>
    <linearGradient id="e" data-name="êVãKÉOÉâÉfÅ[ÉVÉáÉìÉXÉEÉHÉbÉ` 6" x1="118.31" y1="53.08" x2="163.75" y2="79.31" xlink:href="#b"/>
    <linearGradient id="f" data-name="êVãKÉOÉâÉfÅ[ÉVÉáÉìÉXÉEÉHÉbÉ` 6" x1="105.78" y1="90.24" x2="180.2" y2="133.21" xlink:href="#b"/>
    <linearGradient id="g" data-name="êVãKÉOÉâÉfÅ[ÉVÉáÉìÉXÉEÉHÉbÉ` 6" x1="9.02" y1="-2.84" x2="64.76" y2="29.35" xlink:href="#b"/>
    <linearGradient id="h" data-name="êVãKÉOÉâÉfÅ[ÉVÉáÉìÉXÉEÉHÉbÉ` 6" x1="138.53" y1="121.26" x2="171.81" y2="140.47" xlink:href="#b"/>
  </defs>
  <path d="M112.72,20.29c-3.62-3.94-8.64-5-13.81-5.31-5.15-.31-11.28-.51-12.72-6.62-.26-1.11-3.99-.43-3.76.57,2.51,10.72,16.53,5.53,23.59,9.69.21.12.41.26.61.39-3.67-.9-7.61-.72-11.33.52-6.79,2.26-9.17,9.75-5.72,15.91.6,1.08,4.1-.21,3.68-.97-2.1-3.75-2.75-11.72,2.55-13.49,5.84-1.95,11.9-.02,16.09,4.31.12.12.3.19.51.22,4.01,8.51.21,20.24-5.62,27.29-.94,1.14,2.72,1.04,3.36.26,7.56-9.13,11.4-23.16,2.57-32.77Z" fill="url(#b)" stroke-width="0"/>
  <path d="M124.61,47.89c2.8-1.45,5.54-3.03,8.24-4.71,5.02-3.16,10.13-5.13,15.34-5.92,3.81-.57,7.22-.52,10.21.12,2.89.67,5.18,1.84,6.86,3.52.71.72,1.25,1.69,1.64,2.92.44,1.29.59,2.49.43,3.58-.13.89-.56,1.71-1.31,2.46-1.19,1.19-2.41,2.04-3.64,2.55-1.05.44-1.74.51-2.07.18-.1-.1-.01-.48.26-1.11.27-.64.53-1.08.78-1.32.2-.2.6-.44,1.2-.74.6-.3,1.02-.57,1.26-.81.93-.93,1.41-1.95,1.44-3.05.03-1.1-.39-2.09-1.26-2.96-1.42-1.42-4.29-2.06-8.6-1.92-4.68.15-10.28,1.21-16.8,3.2-4.92,1.48-10,3.68-15.22,6.59-.64.37-1.08.57-1.31.64-.34.1-.64.02-.91-.25-.34-.34-.34-.69,0-1.03.16-.17,1.32-.81,3.46-1.95ZM137.42,18.93c.68-.03,1.21.14,1.6.53.14.14.28.59.42,1.36.15.77.28,1.22.4,1.34.1.1.5.09,1.18-.04,1.77-.26,2.71-.4,2.86-.42.87-.1,1.43-.15,1.67-.15.46.02.87.2,1.22.55.44.45.49,1.69.15,3.74-.14.75-.28,1.5-.43,2.25-.1.54-.09.88.04,1,.14.14.58.29,1.32.44.73.15,1.19.31,1.35.47.22.22.34.59.34,1.1s-.15.9-.43,1.18c-.22.22-2.2,1.13-5.92,2.71-5.43,2.31-8.56,3.67-9.39,4.1-2.37,1.23-4.66,2.8-6.86,4.68-1.74,1.54-3.49,3.06-5.22,4.56-1.2.99-1.99,1.3-2.37.91l-.06-.06c-.18-.18.99-1.54,3.53-4.07.69-.69,1.76-1.64,3.22-2.86,1.58-1.29,2.74-2.29,3.47-2.98,1.17-1.13,2.27-2.14,3.28-3.04.89-.77,1.31-1.12,1.25-1.06.67-.67.89-1.11.67-1.34-.24-.24-1.34.38-3.28,1.88-2.23,1.74-4.85,4.12-7.87,7.14l-.25.24c-.22.22-.55.57-.97,1.04-.43.46-.76.82-1,1.06-1.15,1.16-1.85,1.61-2.1,1.37-.18-.18-.04-.57.43-1.15.67-.83,1.35-1.65,2.03-2.46,3.28-3.96,5.37-6.54,6.26-7.71,1.83-2.39,3.12-4.4,3.89-6.02.89-1.9,1.76-4.09,2.61-6.56.62-1.76,1.07-2.77,1.34-3.04.43-.42.98-.66,1.66-.68ZM121.89.02c1.81.16,3.5,1.02,5.08,2.6,3.32,3.32,4.88,7.73,4.68,13.24-.24,5.67-2.36,11.88-6.35,18.63-2.39,3.61-4.08,6.01-5.08,7.2-.58.87-1.25,1.89-2,3.04-.51.83-.82,1.3-.94,1.43-.16.16-.37.27-.64.33-.24-.45-.32-.83-.24-1.15.06-.14.26-.47.6-.97,1.04-1.48,2.14-3.33,3.31-5.55,1.36-2.62,2.44-5.22,3.25-7.81,2.2-7.15,3.33-13.22,3.37-18.2.02-4.8-.97-8.2-2.95-10.18-.5-.5-1.29-.85-2.35-1.02-1.06-.17-1.82-.03-2.26.41-.26.27-.72.99-1.37,2.19-.64,1.2-1.29,2.12-1.94,2.76-1.19,1.2-2.12,1.48-2.77.83-.49-.49-.22-1.24.79-2.25.1-.1.22-.23.36-.36.16-.12.27-.2.31-.25.02-.02.28-.4.79-1.15.51-.75,1.09-1.45,1.73-2.1,1.26-1.25,2.8-1.81,4.61-1.65Z" fill="url(#c)" stroke-width="0"/>
  <path d="M1.28,8.27h75.3c.47,0,2.41.03,2.36.88-.35,5.39,2.41,11.16,7.92,12.7.26.07,1.23.47.82.91-6.5,7.02-6.35,17.53,1.55,23.53,4.56,3.46,11.61,2.37,14.47-2.65,1.26-2.22,1.38-4.64.63-6.75-1,.91-2.6,1.25-4.2.76-2.23-.69-3.58-2.73-3.01-4.57.54-1.75,2.61-2.66,4.72-2.16.13.02.25.04.34.07,0,0,0,0,0,0,.42.13.8.32,1.15.54,4.41,2.33,6.61,7.29,4.27,12.17-2.47,5.15-8.86,6.69-14.16,6.05-6.4-.77-11.75-5.29-13.75-11.4-1.84-5.63.21-11.48,3.91-15.73-5.29-2.05-8.52-7.14-8.49-12.83H2.2c-1.6,0-3.52-1.53-.92-1.53Z" fill="url(#d)" stroke-width="0"/>
  <path d="M160.52,81.42c-6.11-1.43-6.3-7.57-6.62-12.72-.31-5.16-1.37-10.19-5.31-13.81-9.61-8.83-23.63-4.99-32.77,2.57-.78.64-.88,4.3.26,3.36,7.05-5.83,18.78-9.63,27.29-5.62.03.21.1.39.22.51,4.33,4.19,6.26,10.25,4.31,16.09-1.77,5.3-9.75,4.65-13.49,2.55-.76-.43-2.05,3.07-.97,3.68,6.16,3.45,13.64,1.06,15.91-5.72,1.24-3.72,1.42-7.66.52-11.33.13.2.27.4.39.61,4.16,7.05-1.03,21.08,9.69,23.59,1,.23,1.68-3.5.57-3.76Z" fill="url(#e)" stroke-width="0"/>
  <path d="M160.62,166.34v-75.3c0-.47-.03-2.41-.88-2.36-5.39.35-11.16-2.41-12.7-7.92-.07-.26-.47-1.23-.91-.82-7.02,6.5-17.53,6.35-23.53-1.55-3.46-4.56-2.37-11.61,2.64-14.47,2.22-1.26,4.64-1.38,6.75-.63-.91,1-1.25,2.6-.76,4.19.69,2.23,2.73,3.58,4.58,3.01,1.75-.54,2.66-2.61,2.16-4.72-.02-.13-.04-.25-.07-.34,0,0,0,0,0,0-.13-.42-.32-.8-.54-1.15-2.34-4.41-7.29-6.61-12.17-4.27-5.15,2.47-6.69,8.86-6.05,14.16.77,6.4,5.29,11.75,11.4,13.75,5.63,1.84,11.48-.21,15.73-3.91,2.05,5.29,7.14,8.52,12.83,8.49v72.92c0,1.6,1.52,3.52,1.52.92Z" fill="url(#f)" stroke-width="0"/>
  <path d="M73.22,14.69H2.2c-1.6,0-3.52-2.47-.92-2.47h71.53c.04.64.21,1.71.42,2.47Z" fill="url(#g)" stroke-width="0"/>
  <path d="M153.98,94.51v71.03c0,1.6,2.47,3.52,2.47.92v-71.53c-.64-.04-1.71-.21-2.47-.42Z" fill="url(#h)" stroke-width="0"/>
</svg>