<?xml version="1.0" encoding="UTF-8"?>
<svg id="a" data-name="Layer 1" xmlns="http://www.w3.org/2000/svg" width="22.56" height="24" viewBox="0 0 22.56 24">
  <circle cx="11.32" cy="22.18" r="1.82" stroke-width="0"/>
  <rect y="17.9" width="22.56" height="1.76" stroke-width="0"/>
  <rect y="15.52" width="22.56" height="1.76" stroke-width="0"/>
  <path d="M22.53,14.98H4.71c-.82,0-1.5-.05-2.05-.14-.55-.09-1-.24-1.33-.45-.34-.21-.58-.47-.72-.79-.14-.33-.21-.72-.21-1.19,0-.3.06-.62.19-.97s.33-.65.62-.95c.28-.29.66-.53,1.12-.72s1.04-.28,1.73-.28h2.04c.73,0,1.3-.11,1.73-.33.43-.23.75-.51.97-.85.22-.35.36-.73.43-1.14.06-.42.09-.83.09-1.22,0-.63-.09-1.2-.26-1.69s-.42-.91-.72-1.25-.66-.6-1.06-.77-.83-.26-1.27-.26c-.28,0-.58.04-.91.14,1.26.58,1.9,1.56,1.9,2.94,0,.51-.08.97-.24,1.38s-.4.75-.69,1.04c-.3.29-.66.51-1.07.67-.41.16-.88.23-1.38.23-.47,0-.92-.09-1.36-.26s-.82-.41-1.15-.7-.6-.64-.79-1.03c-.19-.4-.3-.81-.3-1.25,0-.73.16-1.4.5-2.02.33-.62.75-1.17,1.31-1.63.56-.46,1.2-.82,1.94-1.09.73-.26,1.52-.39,2.34-.39.69,0,1.38.12,2.05.36.68.24,1.29.6,1.82,1.07.53.48.97,1.07,1.3,1.79s.5,1.55.5,2.5c0,.81-.08,1.51-.23,2.12s-.36,1.12-.63,1.54-.58.78-.95,1.05c-.36.27-.77.49-1.19.65s-.87.27-1.34.33c-.46.06-.93.09-1.39.09h-2.02c-.19,0-.37.03-.51.07-.15.04-.27.11-.36.18s-.16.15-.21.23-.07.16-.07.24c0,.51.38.77,1.16.77h18.52v2h0ZM4.62,4.95c0-.23-.03-.46-.09-.67-.06-.21-.14-.4-.24-.56-.1-.16-.22-.3-.36-.39-.14-.1-.28-.14-.44-.14s-.32.05-.46.15c-.14.1-.26.24-.36.4-.1.17-.18.36-.24.57-.06.21-.09.43-.09.65s.03.43.09.64c.06.21.14.4.24.56.1.17.23.3.36.4.14.1.3.14.46.14s.31-.05.45-.14c.14-.1.26-.23.36-.39s.18-.35.23-.56c.06-.21.09-.42.09-.65Z" stroke-width="0"/>
</svg>